<svg id="Logos" xmlns="http://www.w3.org/2000/svg" viewBox="0 0 800.15 222.68"><defs><style>.cls-1{fill:#e00;}</style></defs><title>Logo-Red_Hat-CloudForms-A-Standard-RGB</title><path d="M285.65,200.82l7.17,7.28a39.67,39.67,0,0,1-29.12,12.58c-21.63,0-38.17-16.54-38.17-37.54s16.64-37.55,38.17-37.55c11.44,0,22.36,4.68,29.33,12.58l-7.28,7.49a28.91,28.91,0,0,0-22.05-10c-15.39,0-27,11.86-27,27.46s11.75,27.45,27.35,27.45A28.25,28.25,0,0,0,285.65,200.82Z"/><path d="M312.58,219.54h-10.4V146.73l10.4-2.28Z"/><path d="M349.91,165.56A27.51,27.51,0,1,1,322.35,193,27.17,27.17,0,0,1,349.91,165.56Zm0,9.15c-9.67,0-17.36,8-17.36,18.31s7.59,18.4,17.36,18.4,17.37-8.11,17.37-18.4S359.59,174.71,349.91,174.71Z"/><path d="M397.44,198.11c0,8.22,5,13.42,13.21,13.42a14.89,14.89,0,0,0,13-6.87V166.6h10.4v52.94h-10.4v-5.31a21.63,21.63,0,0,1-15.91,6.35c-12.17,0-20.6-8.53-20.6-20.7V166.6h10.3Z"/><path d="M486.78,214.55a25,25,0,0,1-16.23,5.82c-15.08,0-26.73-12.17-26.73-27.35s11.65-27.25,26.94-27.25a26.48,26.48,0,0,1,15.91,5.2V146.73l10.4-2.28v75.09H486.78ZM472,211.32A19,19,0,0,0,486.67,205V181A19.78,19.78,0,0,0,472,174.71c-10.3,0-18,7.91-18,18.2C454,203.42,461.92,211.32,472,211.32Z"/><path d="M510.49,146.73h54.08v9.57H521.41v22.36H550V188h-28.6v31.52H510.49Z"/><path d="M590.46,165.56A27.51,27.51,0,1,1,562.9,193,27.17,27.17,0,0,1,590.46,165.56Zm0,9.15c-9.67,0-17.37,8-17.37,18.31s7.59,18.4,17.37,18.4,17.37-8.11,17.37-18.4S600.13,174.71,590.46,174.71Z"/><path d="M627.69,166.6h10.4v6.55a17,17,0,0,1,14.46-7.69,15.17,15.17,0,0,1,5.41.83v9.36a18.41,18.41,0,0,0-6.24-1.15c-5.51,0-10.71,2.71-13.63,9.57v35.47h-10.4Z"/><path d="M666.38,166.6h10.4v4.89a20.23,20.23,0,0,1,14.77-5.93A18.87,18.87,0,0,1,708,174.3c4.27-5.72,10.3-8.74,17.89-8.74,11.65,0,19.76,8.53,19.76,20.7v33.28H735.34V188c0-8.21-4.58-13.41-12.17-13.41-5.31,0-9.47,2.49-12.38,7.07a22.24,22.24,0,0,1,.42,4.58v33.28h-10.4V188c0-8.21-4.58-13.41-12.07-13.41a13.75,13.75,0,0,0-12,6.34v38.59h-10.4Z"/><path d="M758.42,205.81a27.22,27.22,0,0,0,17.26,6.65c8.33,0,12.69-3.64,12.69-7.9,0-3.74-2.6-5.93-8.53-6.76l-9.56-1.35c-10.4-1.46-15.81-6.45-15.81-14.67,0-9.67,8.53-16,20.69-16a36.37,36.37,0,0,1,21.33,6.76l-5.31,6.86c-5.09-3.43-10.4-5.51-16.74-5.51-6.14,0-10.61,2.7-10.61,7.18,0,3.95,2.49,5.72,8.73,6.65l9.57,1.35c10.71,1.56,16,6.66,16,14.77,0,9.57-9.57,16.64-22.15,16.64-8.84,0-17.16-2.6-23.2-7.8Z"/><path class="cls-1" d="M129,85c12.51,0,30.61-2.58,30.61-17.46a14,14,0,0,0-.31-3.42l-7.45-32.36c-1.72-7.12-3.23-10.35-15.73-16.6C126.39,10.19,105.26,2,99,2c-5.82,0-7.55,7.54-14.44,7.54-6.69,0-11.64-5.6-17.9-5.6-6,0-9.91,4.09-12.93,12.5,0,0-8.41,23.71-9.49,27.16A6.43,6.43,0,0,0,44,45.54C44,54.76,80.33,85,129,85m32.55-11.42c1.73,8.19,1.73,9.05,1.73,10.13,0,14-15.74,21.77-36.43,21.77C80,105.47,39.08,78.1,39.08,60a18.45,18.45,0,0,1,1.51-7.33C23.77,53.52,2,56.54,2,75.72,2,107.2,76.59,146,135.65,146c45.28,0,56.7-20.48,56.7-36.65,0-12.72-11-27.16-30.83-35.78"/><path d="M161.52,73.57c1.73,8.19,1.73,9.05,1.73,10.13,0,14-15.74,21.77-36.43,21.77C80,105.47,39.08,78.1,39.08,60a18.45,18.45,0,0,1,1.51-7.33l3.66-9.06A6.43,6.43,0,0,0,44,45.54C44,54.76,80.33,85,129,85c12.51,0,30.61-2.58,30.61-17.46a14,14,0,0,0-.31-3.42Z"/><path d="M581.24,94.3c0,11.89,7.15,17.67,20.19,17.67a52.11,52.11,0,0,0,11.89-1.68V96.51a24.84,24.84,0,0,1-7.68,1.16c-5.37,0-7.36-1.68-7.36-6.73V69.8h15.56V55.6H598.28v-18l-17,3.68V55.6H570V69.8h11.25Zm-52.94.32c0-3.68,3.68-5.47,9.25-5.47a43.12,43.12,0,0,1,10.1,1.26v7.15A21.51,21.51,0,0,1,537,100.19c-5.46,0-8.72-2.1-8.72-5.57m5.19,17.56c6,0,10.84-1.26,15.36-4.31v3.37h16.83V75.58c0-13.56-9.15-21-24.4-21-8.52,0-16.94,2-26,6.1l6.1,12.51c6.52-2.73,12-4.41,16.83-4.41,7,0,10.62,2.73,10.62,8.31v2.73a49.48,49.48,0,0,0-12.62-1.58c-14.3,0-22.93,6-22.93,16.72,0,9.78,7.78,17.25,20.19,17.25m-92.44-.94h18.09V82.42h30.29v28.82h18.09V37.62H489.43V65.91H459.14V37.62H441.05ZM372.12,83.37c0-8,6.31-14.1,14.62-14.1a17.22,17.22,0,0,1,11.78,4.32V93a16.36,16.36,0,0,1-11.78,4.42c-8.2,0-14.62-6.1-14.62-14.09m26.61,27.87h16.83V33.94l-17,3.68V58.55a28.3,28.3,0,0,0-14.2-3.68c-16.19,0-28.92,12.51-28.92,28.5A28.26,28.26,0,0,0,383.8,112a25.06,25.06,0,0,0,14.93-4.84Zm-77.19-42.7c5.36,0,9.88,3.47,11.67,8.83H310c1.68-5.57,5.89-8.83,11.57-8.83M292.83,83.47c0,16.2,13.25,28.82,30.28,28.82,9.36,0,16.2-2.53,23.25-8.42l-11.26-10c-2.63,2.74-6.52,4.21-11.14,4.21a14.39,14.39,0,0,1-13.68-8.83h39.65V85.05c0-17.67-11.88-30.4-28.08-30.4a28.57,28.57,0,0,0-29,28.82M263.49,53.08c6,0,9.36,3.78,9.36,8.31s-3.37,8.3-9.36,8.3H245.61V53.08Zm-36,58.16h18.09V84.42h13.77l13.89,26.82h20.19l-16.2-29.45a22.28,22.28,0,0,0,13.88-20.72c0-13.25-10.41-23.45-26-23.45H227.52Z"/></svg>