<svg id="_1" data-name="1" xmlns="http://www.w3.org/2000/svg" viewBox="0 0 546.89 414.07"><defs><style>.cls-1{fill:#e00;}</style></defs><title>Logo-Red_Hat-LatAm_Telco_Team-A-Standard-RGB</title><path d="M80.7,241.32H93.48V222.37h9.73L113,241.32h14.26l-11.44-20.8a15.74,15.74,0,0,0,9.81-14.64c0-9.36-7.36-16.57-18.35-16.57H80.7v52Zm25.41-41.09c4.23,0,6.61,2.68,6.61,5.87s-2.38,5.87-6.61,5.87H93.48V200.23Zm20.73,21.48c0,11.44,9.36,20.35,21.39,20.35a23.59,23.59,0,0,0,16.42-5.94l-8-7.06a10.66,10.66,0,0,1-7.87,3,10.15,10.15,0,0,1-9.66-6.24h28v-3c0-12.48-8.4-21.47-19.84-21.47a20.18,20.18,0,0,0-20.5,20.36m20.28-10.55a8.68,8.68,0,0,1,8.24,6.24H138.94a8.19,8.19,0,0,1,8.18-6.24m54.53,30.16h11.88V186.71l-12,2.6V204.1a20.25,20.25,0,1,0-10.4,37.74,17.74,17.74,0,0,0,10.55-3.42v2.9Zm-18.8-19.69c0-5.65,4.46-9.95,10.33-9.95a12.18,12.18,0,0,1,8.32,3v13.75a11.58,11.58,0,0,1-8.32,3.12,10,10,0,0,1-10.33-10m48.69,19.69h12.78V221h21.4v20.36H278.5v-52H265.72v20h-21.4v-20H231.54v52Zm65.31.67a18.33,18.33,0,0,0,10.84-3.05v2.38h11.89V216.13c0-9.58-6.46-14.86-17.23-14.86A43.89,43.89,0,0,0,284,205.58l4.31,8.84c4.61-1.93,8.47-3.12,11.89-3.12,5,0,7.5,1.94,7.5,5.87v1.94a34.53,34.53,0,0,0-8.91-1.12c-10.1,0-16.2,4.24-16.2,11.81,0,6.91,5.5,12.19,14.27,12.19m-3.67-12.41c0-2.6,2.6-3.86,6.53-3.86a30.31,30.31,0,0,1,7.14.89v5a15.24,15.24,0,0,1-7.51,1.86c-3.86,0-6.16-1.49-6.16-3.94m37.4-.22c0,8.39,5.05,12.48,14.26,12.48a36.9,36.9,0,0,0,8.4-1.19v-9.73a17.67,17.67,0,0,1-5.43.81c-3.79,0-5.2-1.18-5.2-4.75V212.05h11V202h-11V189.31l-12,2.6V202h-7.95v10h7.95v17.31Z"/><path d="M159.27,64.11a14,14,0,0,1,.31,3.42C159.58,82.41,141.47,85,129,85,80.32,85,44,54.76,44,45.55a6.46,6.46,0,0,1,.22-1.95l-3.66,9.06A18.28,18.28,0,0,0,39.08,60c0,18.11,41,45.48,87.74,45.48,20.69,0,36.43-7.76,36.43-21.77,0-1.08,0-1.94-1.73-10.13l-2.25-9.46Z"/><path class="cls-1" d="M161.52,73.57c1.73,8.19,1.73,9.05,1.73,10.13,0,14-15.74,21.77-36.43,21.77C80,105.47,39.08,78.1,39.08,60a18.28,18.28,0,0,1,1.51-7.33C23.77,53.52,2,56.54,2,75.72,2,107.2,76.59,146,135.65,146c45.27,0,56.7-20.48,56.7-36.64,0-12.73-11-27.17-30.83-35.79M129,85c12.5,0,30.61-2.59,30.61-17.47a14,14,0,0,0-.31-3.42l-7.45-32.36c-1.72-7.11-3.23-10.35-15.73-16.6C126.38,10.19,105.26,2,99,2c-5.82,0-7.55,7.55-14.45,7.55-6.68,0-11.64-5.61-17.89-5.61-6,0-9.92,4.1-12.93,12.5,0,0-8.41,23.72-9.49,27.16A6.46,6.46,0,0,0,44,45.55C44,54.76,80.32,85,129,85"/><path d="M81.7,273.82h7.87v45.52H119.8v7H81.7Z"/><path d="M124.9,315.37c0-7.2,5.85-11.63,15.45-11.63a26.93,26.93,0,0,1,10.42,2.1v-4c0-5.4-3.22-8.1-9.3-8.1-3.52,0-7.12,1-11.85,3.23l-2.77-5.62a35.75,35.75,0,0,1,15.67-3.91c9.9,0,15.6,4.88,15.6,13.65v25.28h-7.35V323a18.1,18.1,0,0,1-11.85,4C130.6,327,124.9,322.27,124.9,315.37Zm15.75,6.07a14.67,14.67,0,0,0,10.12-3.6v-6.6a19.86,19.86,0,0,0-9.82-2.32c-5.48,0-8.85,2.47-8.85,6.3C132.1,318.89,135.55,321.44,140.65,321.44Z"/><path d="M170.2,294.44h-8.1v-6.3h8.1V278.4l7.42-1.8v11.54h11.25v6.3H177.62v20.7c0,3.9,1.58,5.33,5.63,5.33a14.79,14.79,0,0,0,5.47-.9v6.3A25,25,0,0,1,181.6,327c-7.43,0-11.4-3.52-11.4-10.12Z"/><path d="M193.6,277.35a4.61,4.61,0,0,1,4.57-4.65,4.65,4.65,0,0,1,0,9.3A4.61,4.61,0,0,1,193.6,277.35Zm8.32,49h-7.5V288.14h7.5Z"/><path d="M210.77,288.14h7.5V292a15.73,15.73,0,0,1,11.48-4.58c8.77,0,14.92,6.08,14.92,14.93v24h-7.5V303.6c0-6-3.67-9.68-9.45-9.68a10.78,10.78,0,0,0-9.45,4.95v27.45h-7.5Z"/><path d="M286.37,273.82h9.23L317,326.32H308.5l-6.08-15.38H279l-6.15,15.38h-8.18Zm13.5,30.6-9.15-23-9.15,23Z"/><path d="M321.55,288.14h7.5v3.61a14.61,14.61,0,0,1,10.72-4.36,13.3,13.3,0,0,1,11.77,6.38,15.3,15.3,0,0,1,12.9-6.38c8.4,0,14.33,6.08,14.33,14.93v24h-7.5V303.6c0-6-3.38-9.68-8.78-9.68a10.16,10.16,0,0,0-8.92,5.1,16.21,16.21,0,0,1,.3,3.3v24h-7.42V303.6c0-6-3.38-9.68-8.78-9.68a10,10,0,0,0-8.62,4.65v27.75h-7.5Z"/><path d="M405.69,327a19.64,19.64,0,0,1-20-19.8c0-11,8.4-19.64,19.12-19.64,10.5,0,18.45,8.69,18.45,19.94v2.18H393.1A12.88,12.88,0,0,0,406,320.62a14.86,14.86,0,0,0,9.67-3.38l4.8,4.73A22.79,22.79,0,0,1,405.69,327ZM393.17,304h22.65c-1.13-5.85-5.63-10.19-11.18-10.19C398.87,293.85,394.29,298,393.17,304Z"/><path d="M430.37,288.14h7.5V293a12,12,0,0,1,10.5-5.7,9.49,9.49,0,0,1,3.82.6v6.75a12.68,12.68,0,0,0-4.42-.82c-4.43,0-7.95,2.39-9.9,7v25.5h-7.5Z"/><path d="M457.37,277.35a4.61,4.61,0,0,1,4.57-4.65,4.65,4.65,0,0,1,0,9.3A4.61,4.61,0,0,1,457.37,277.35Zm8.32,49h-7.5V288.14h7.5Z"/><path d="M503,315.74l4.5,4.88A21.09,21.09,0,0,1,492.47,327a19.8,19.8,0,0,1,0-39.6,21.67,21.67,0,0,1,15.37,6.38l-4.72,5.1a14.2,14.2,0,0,0-10.5-4.8c-7,0-12.38,5.78-12.38,13.12,0,7.5,5.48,13.2,12.53,13.2A13.9,13.9,0,0,0,503,315.74Z"/><path d="M511.67,315.37c0-7.2,5.85-11.63,15.45-11.63a26.93,26.93,0,0,1,10.42,2.1v-4c0-5.4-3.22-8.1-9.3-8.1-3.52,0-7.12,1-11.85,3.23l-2.77-5.62a35.75,35.75,0,0,1,15.67-3.91c9.9,0,15.6,4.88,15.6,13.65v25.28h-7.35V323a18.1,18.1,0,0,1-11.85,4C517.37,327,511.67,322.27,511.67,315.37Zm15.75,6.07a14.67,14.67,0,0,0,10.12-3.6v-6.6a19.86,19.86,0,0,0-9.82-2.32c-5.48,0-8.85,2.47-8.85,6.3C518.87,318.89,522.32,321.44,527.42,321.44Z"/><path d="M77.65,358.82h44.77v7H104v45.52H96.1V365.8H77.65Z"/><path d="M137.27,412a19.64,19.64,0,0,1-20-19.8c0-11,8.4-19.64,19.12-19.64,10.5,0,18.45,8.69,18.45,19.94v2.18H124.67a12.88,12.88,0,0,0,12.9,10.95,14.87,14.87,0,0,0,9.68-3.38l4.8,4.73A22.79,22.79,0,0,1,137.27,412ZM124.75,389H147.4c-1.13-5.85-5.63-10.19-11.18-10.19C130.45,378.85,125.87,383,124.75,389Z"/><path d="M169.45,411.32H162v-52.5l7.5-1.65Z"/><path d="M206.8,400.74l4.5,4.88A21.13,21.13,0,0,1,196.22,412a19.8,19.8,0,0,1,0-39.6,21.69,21.69,0,0,1,15.38,6.38l-4.73,5.1a14.18,14.18,0,0,0-10.5-4.8c-7,0-12.37,5.78-12.37,13.12,0,7.5,5.47,13.2,12.52,13.2A13.92,13.92,0,0,0,206.8,400.74Z"/><path d="M234,372.39a19.84,19.84,0,1,1-19.87,19.8A19.6,19.6,0,0,1,234,372.39Zm12.45,19.8c0-7.42-5.55-13.19-12.45-13.19s-12.52,5.77-12.52,13.19S227,405.47,234,405.47C240.92,405.47,246.47,399.62,246.47,392.19Z"/><path d="M273.47,358.82h44.78v7H299.8v45.52h-7.88V365.8H273.47Z"/><path d="M333.1,412a19.65,19.65,0,0,1-20-19.8c0-11,8.4-19.64,19.13-19.64,10.5,0,18.45,8.69,18.45,19.94v2.18H320.5a12.88,12.88,0,0,0,12.9,10.95,14.84,14.84,0,0,0,9.67-3.38l4.8,4.73A22.74,22.74,0,0,1,333.1,412ZM320.57,389h22.65c-1.12-5.85-5.62-10.19-11.17-10.19C326.27,378.85,321.7,383,320.57,389Z"/><path d="M355.37,400.37c0-7.2,5.85-11.63,15.45-11.63a27,27,0,0,1,10.43,2.1v-4c0-5.4-3.23-8.1-9.3-8.1-3.53,0-7.13,1-11.85,3.23l-2.78-5.62A35.75,35.75,0,0,1,373,372.39c9.9,0,15.6,4.88,15.6,13.65v25.28h-7.35V408a18.12,18.12,0,0,1-11.85,4C361.07,412,355.37,407.27,355.37,400.37Zm15.75,6.07a14.69,14.69,0,0,0,10.13-3.6v-6.6a19.9,19.9,0,0,0-9.83-2.32c-5.47,0-8.85,2.47-8.85,6.3C362.57,403.89,366,406.44,371.12,406.44Z"/><path d="M397.22,373.14h7.5v3.61a14.62,14.62,0,0,1,10.73-4.36,13.31,13.31,0,0,1,11.77,6.38,15.3,15.3,0,0,1,12.9-6.38c8.4,0,14.33,6.08,14.33,14.93v24H447V388.6c0-6-3.38-9.68-8.78-9.68a10.16,10.16,0,0,0-8.92,5.1,16.21,16.21,0,0,1,.3,3.3v24h-7.43V388.6c0-6-3.37-9.68-8.77-9.68a10,10,0,0,0-8.63,4.65v27.75h-7.5Z"/></svg>