<svg xmlns="http://www.w3.org/2000/svg" viewBox="0 0 1189 243"><defs><style>.a{fill:#e00;}</style></defs><title>Logo-Red_Hat-OpenStack_Platform-A-Standard-RGB</title><path d="M263.39,220.68c-21.22,0-37.86-16.54-37.86-37.54s16.64-37.55,37.86-37.55,38,16.54,38,37.55S284.61,220.68,263.39,220.68Zm0-65c-15.08,0-26.73,11.86-26.73,27.46s11.65,27.45,26.73,27.45,26.83-12,26.83-27.45S278.57,155.68,263.39,155.68Z"/><path d="M311.64,166.6h10.3v5a25,25,0,0,1,16.22-5.82c15.08,0,26.73,12.06,26.73,27.25s-11.65,27.35-27,27.35a26.2,26.2,0,0,1-15.81-5.2v25.9h-10.4ZM322,181.06v24.13a19.72,19.72,0,0,0,14.67,6.13c10.29,0,18-7.9,18-18.2,0-10.5-7.9-18.3-18-18.3C330.57,174.82,325.48,177.1,322,181.06Z"/><path d="M398.9,165.77c14.56,0,25.58,12.06,25.58,27.66v3H382.67a17.86,17.86,0,0,0,17.89,15.18A20.56,20.56,0,0,0,414,207l6.66,6.56a31.27,31.27,0,0,1-20.49,7c-15.6,0-27.77-12-27.77-27.45C372.38,177.83,383.92,165.77,398.9,165.77Zm-16.12,22.88h31.41c-1.46-8.11-7.8-14.15-15.5-14.15C390.58,174.5,384.34,180.33,382.78,188.65Z"/><path d="M434.26,166.6h10.4v5.3a21.62,21.62,0,0,1,15.91-6.34c12.17,0,20.59,8.53,20.59,20.7v33.28H470.87V188c0-8.21-5-13.41-13.21-13.41a14.91,14.91,0,0,0-13,6.86v38.07h-10.4Z"/><path d="M494.68,199.78c7.8,7.69,15.81,11.44,25.07,11.44,10.6,0,17.68-5,17.68-12.17,0-6.35-4-9.67-14.77-11.44l-12.17-2C497,183.34,490.62,177,490.62,166.7c0-12.58,10.51-20.9,26.84-20.9a49.28,49.28,0,0,1,29.33,9.88l-6,8.32c-7.9-6-15.81-8.94-23.81-8.94-9.47,0-15.81,4.36-15.81,10.81,0,5.83,3.64,8.74,13,10.3L525.88,178c15.5,2.5,22.36,8.94,22.36,20.18,0,13.31-11.65,22.36-29,22.36A43.85,43.85,0,0,1,488,207.47Z"/><path d="M561.86,175.34H550.63V166.6h11.23V153.08l10.3-2.5v16h15.6v8.74h-15.6V204c0,5.41,2.19,7.39,7.8,7.39a20.18,20.18,0,0,0,7.59-1.25v8.73a35.44,35.44,0,0,1-9.88,1.56c-10.29,0-15.81-4.88-15.81-14Z"/><path d="M592.75,204.35c0-10.61,9-16.12,21.43-16.12a36.59,36.59,0,0,1,14.45,2.91v-5.61c0-7.49-4.47-11.23-12.89-11.23-5.1,0-10.3,1.56-16.44,4.47l-3.84-7.8c7.48-3.54,14.35-5.41,21.73-5.41,13.63,0,21.64,6.66,21.64,18.93v35h-10.2V215c-4.57,3.75-10,5.51-16.43,5.51C600.66,220.47,592.75,213.82,592.75,204.35Zm21.84,8.43a20.38,20.38,0,0,0,14-5v-9.26A27.75,27.75,0,0,0,615,195.41c-7.28,0-12.27,3.22-12.27,8.73C602.74,209.35,607.62,212.78,614.59,212.78Z"/><path d="M690.41,204.87l6.24,6.76a29.26,29.26,0,0,1-20.91,8.84,27.46,27.46,0,0,1,0-54.91,30.3,30.3,0,0,1,21.32,8.84l-6.55,7.07A19.65,19.65,0,0,0,676,174.82c-9.67,0-17.16,8-17.16,18.2,0,10.4,7.59,18.3,17.37,18.3C681.57,211.32,686.25,209.14,690.41,204.87Z"/><path d="M705.07,146.73l10.4-2.28v45.34l25.69-23.19h12.17L726,191.46l28.71,28.08H741.05l-25.58-24.86v24.86h-10.4Z"/><path d="M782.55,146.73h33.7c14.35,0,23.81,9,23.81,21.85,0,12.58-9.46,21.63-23.81,21.63H793.47v29.33H782.55Zm10.92,9.57V181H815.1c8.84,0,13.94-5.09,13.94-12.37s-5.1-12.28-13.94-12.28Z"/><path d="M860.34,219.54h-10.4V146.73l10.4-2.28Z"/><path d="M869.8,204.35c0-10.61,9.05-16.12,21.43-16.12a36.59,36.59,0,0,1,14.45,2.91v-5.61c0-7.49-4.47-11.23-12.89-11.23-5.1,0-10.3,1.56-16.44,4.47l-3.84-7.8c7.49-3.54,14.35-5.41,21.73-5.41,13.63,0,21.64,6.66,21.64,18.93v35h-10.2V215c-4.57,3.75-10,5.51-16.43,5.51C877.71,220.47,869.8,213.82,869.8,204.35Zm21.84,8.43a20.38,20.38,0,0,0,14-5v-9.26a27.73,27.73,0,0,0-13.62-3.12c-7.28,0-12.27,3.22-12.27,8.73C879.79,209.35,884.68,212.78,891.64,212.78Z"/><path d="M932.72,175.34H921.49V166.6h11.23V153.08l10.3-2.5v16h15.6v8.74H943V204c0,5.41,2.18,7.39,7.8,7.39a20.18,20.18,0,0,0,7.59-1.25v8.73a35.44,35.44,0,0,1-9.88,1.56c-10.29,0-15.81-4.88-15.81-14Z"/><path d="M975.26,166.6v-8c0-10.71,6.13-17.06,18-17.06a29.16,29.16,0,0,1,7.49.94v9.05a20,20,0,0,0-6.55-.94c-5.83,0-8.64,2.5-8.64,8.22v7.8h15.19v8.74H985.55v44.2H975.26v-44.2H963V166.6Z"/><path d="M1031.63,165.56A27.51,27.51,0,1,1,1004.06,193,27.16,27.16,0,0,1,1031.63,165.56Zm0,9.15c-9.68,0-17.37,8-17.37,18.31s7.59,18.41,17.37,18.41S1049,203.31,1049,193,1041.3,174.71,1031.63,174.71Z"/><path d="M1068.86,166.6h10.4v6.55a17,17,0,0,1,14.45-7.69,15.09,15.09,0,0,1,5.41.83v9.36a18.36,18.36,0,0,0-6.24-1.15c-5.51,0-10.71,2.71-13.62,9.57v35.47h-10.4Z"/><path d="M1107.54,166.6h10.4v4.89a20.23,20.23,0,0,1,14.77-5.93,18.9,18.9,0,0,1,16.44,8.74c4.26-5.72,10.29-8.74,17.88-8.74,11.65,0,19.77,8.53,19.77,20.7v33.28h-10.3V188c0-8.21-4.58-13.41-12.17-13.41-5.3,0-9.46,2.49-12.38,7.07a21.57,21.57,0,0,1,.42,4.58v33.28H1142V188c0-8.21-4.58-13.41-12.06-13.41a13.77,13.77,0,0,0-12,6.34v38.59h-10.4Z"/><path class="a" d="M129,85c12.51,0,30.61-2.58,30.61-17.46a14,14,0,0,0-.31-3.42l-7.45-32.36c-1.72-7.12-3.23-10.35-15.73-16.6C126.39,10.19,105.26,2,99,2c-5.82,0-7.55,7.54-14.45,7.54-6.68,0-11.64-5.6-17.89-5.6-6,0-9.91,4.09-12.93,12.5,0,0-8.41,23.72-9.49,27.16A6.43,6.43,0,0,0,44,45.54C44,54.76,80.33,85,129,85m32.55-11.42c1.73,8.19,1.73,9.05,1.73,10.13,0,14-15.74,21.77-36.43,21.77C80,105.47,39.08,78.1,39.08,60a18.45,18.45,0,0,1,1.51-7.33C23.77,53.52,2,56.54,2,75.72,2,107.2,76.59,146,135.65,146c45.28,0,56.7-20.48,56.7-36.65,0-12.72-11-27.16-30.83-35.78"/><path d="M161.52,73.57c1.73,8.19,1.73,9.05,1.73,10.13,0,14-15.74,21.77-36.43,21.77C80,105.47,39.08,78.1,39.08,60a18.45,18.45,0,0,1,1.51-7.33l3.66-9.06A6.43,6.43,0,0,0,44,45.54C44,54.76,80.33,85,129,85c12.51,0,30.61-2.58,30.61-17.46a14,14,0,0,0-.31-3.42Z"/><path d="M581.24,94.3c0,11.89,7.15,17.67,20.19,17.67a52.11,52.11,0,0,0,11.89-1.68V96.51a24.84,24.84,0,0,1-7.68,1.16c-5.37,0-7.36-1.68-7.36-6.73V69.8h15.56V55.6H598.28v-18l-17,3.68V55.6H570V69.8h11.25Zm-53,.32c0-3.68,3.69-5.47,9.26-5.47a43.12,43.12,0,0,1,10.1,1.26v7.15A21.51,21.51,0,0,1,537,100.19c-5.46,0-8.73-2.1-8.73-5.57m5.2,17.56c6,0,10.84-1.26,15.36-4.31v3.37h16.82V75.58c0-13.56-9.14-21-24.39-21-8.52,0-16.94,2-26,6.1l6.1,12.52c6.52-2.74,12-4.42,16.83-4.42,7,0,10.62,2.73,10.62,8.31v2.73a49.53,49.53,0,0,0-12.62-1.58c-14.31,0-22.93,6-22.93,16.73,0,9.78,7.78,17.24,20.19,17.24m-92.44-.94h18.09V82.42h30.29v28.82h18.09V37.62H489.43V65.91H459.14V37.62H441.05ZM372.12,83.37c0-8,6.31-14.1,14.62-14.1a17.22,17.22,0,0,1,11.78,4.32V93a16.36,16.36,0,0,1-11.78,4.42c-8.2,0-14.62-6.1-14.62-14.09m26.61,27.87h16.83V33.94l-17,3.68V58.55a28.3,28.3,0,0,0-14.2-3.68c-16.19,0-28.92,12.51-28.92,28.5A28.25,28.25,0,0,0,383.8,112a25.12,25.12,0,0,0,14.93-4.83Zm-77.19-42.7c5.36,0,9.88,3.47,11.67,8.83H310c1.68-5.57,5.89-8.83,11.57-8.83M292.83,83.47c0,16.2,13.25,28.82,30.28,28.82,9.36,0,16.2-2.53,23.25-8.42l-11.26-10c-2.63,2.74-6.52,4.21-11.14,4.21a14.39,14.39,0,0,1-13.68-8.83h39.65V85.05c0-17.67-11.88-30.39-28.08-30.39a28.57,28.57,0,0,0-29,28.81M263.49,53.08c6,0,9.36,3.78,9.36,8.31s-3.37,8.31-9.36,8.31H245.61V53.08Zm-36,58.16h18.09V84.42h13.77l13.89,26.82h20.19l-16.2-29.45a22.27,22.27,0,0,0,13.88-20.72c0-13.25-10.41-23.45-26-23.45H227.52Z"/></svg>