<svg xmlns="http://www.w3.org/2000/svg" viewBox="0 0 720.42 335.68"><defs><style>.a{fill:#e00;}.b{fill:#fff;}</style></defs><title>Logo-Red_Hat-Ansible_Automation-A-Standard-SVG</title><path d="M213.61,151.83H226.4l29.74,72.81H244.29l-8.43-21.32H203.31l-8.53,21.32H183.45Zm18.72,42.44-12.69-31.93L207,194.27Z"/><path d="M262.28,171.7h10.4V177a21.62,21.62,0,0,1,15.91-6.34c12.17,0,20.59,8.53,20.59,20.7v33.28H298.89V193.12c0-8.21-5-13.41-13.21-13.41a14.89,14.89,0,0,0-13,6.86v38.07h-10.4Z"/><path d="M322,210.91a27.25,27.25,0,0,0,17.27,6.65c8.32,0,12.68-3.63,12.68-7.9,0-3.74-2.6-5.93-8.52-6.76l-9.57-1.35c-10.4-1.46-15.81-6.45-15.81-14.67,0-9.67,8.53-16,20.7-16A36.37,36.37,0,0,1,360,177.63l-5.31,6.86c-5.09-3.43-10.4-5.51-16.74-5.51-6.14,0-10.61,2.7-10.61,7.18,0,4,2.49,5.72,8.73,6.65l9.57,1.35c10.72,1.57,16,6.66,16,14.77,0,9.57-9.57,16.64-22.15,16.64-8.84,0-17.16-2.6-23.19-7.8Z"/><path d="M368.35,156.72a6.49,6.49,0,0,1,6.45-6.45,6.45,6.45,0,0,1,0,12.9A6.49,6.49,0,0,1,368.35,156.72ZM380,224.64H369.6V171.7H380Z"/><path d="M418.27,225.47a25.94,25.94,0,0,1-15.91-5.3v4.47H392.07V151.83l10.4-2.28v27a24.59,24.59,0,0,1,16.12-5.72c15.08,0,26.73,12.06,26.73,27.25S433.67,225.47,418.27,225.47Zm-15.8-39.31v24.13a19.68,19.68,0,0,0,14.66,6.13c10.3,0,18-7.9,18-18.2,0-10.5-7.9-18.3-18-18.3C411,179.92,405.9,182.2,402.47,186.16Z"/><path d="M465.49,224.64h-10.4V151.83l10.4-2.28Z"/><path d="M501.78,170.87c14.56,0,25.59,12.06,25.59,27.66v3H485.56a17.85,17.85,0,0,0,17.89,15.18,20.51,20.51,0,0,0,13.41-4.68l6.66,6.56a31.23,31.23,0,0,1-20.49,7c-15.6,0-27.77-12-27.77-27.45C475.26,182.93,486.81,170.87,501.78,170.87Zm-16.12,22.88h31.41c-1.45-8.11-7.8-14.15-15.49-14.15C493.46,179.6,487.22,185.43,485.66,193.75Z"/><path d="M214,259.83h9.67l29.85,72.81h-8.73l-9.16-22.88H201.33l-9.25,22.88h-8.32Zm18.83,43.06L218.6,267.32l-14.46,35.57Z"/><path d="M265.92,311.94c0,9.15,5.51,15,14.56,15a16.11,16.11,0,0,0,14.35-8V280.53h7.7v52.11h-7.7v-6c-4.06,4.68-9.57,7.07-16.33,7.07-12,0-20.18-8.22-20.18-20.18v-33h7.6Z"/><path d="M322,287.08H310.74v-6.55H322V267.32l7.59-2v15.18h15.71v6.55H329.56V319c0,5.62,2.29,7.8,8,7.8a19.28,19.28,0,0,0,7.59-1.35v6.76a30.32,30.32,0,0,1-9.15,1.35c-9.15,0-14-4.47-14-12.58Z"/><path d="M376.05,279.49c14.77,0,26.52,11.86,26.52,27s-11.75,27.15-26.52,27.15-26.62-11.86-26.62-27.15S361.18,279.49,376.05,279.49Zm0,6.87c-10.61,0-19,8.84-19,20.17s8.32,20.28,19,20.28S395,317.87,395,306.53,386.66,286.36,376.05,286.36Z"/><path d="M413.18,280.53h7.69v5.62a19.61,19.61,0,0,1,15.29-6.66A18.28,18.28,0,0,1,452.6,289a20.33,20.33,0,0,1,17.78-9.47c11.44,0,19.24,8.22,19.24,20.18v33H482V301.23c0-9.15-5.1-15-13.52-15-5.93,0-10.61,3-13.83,8.53a24.44,24.44,0,0,1,.52,4.89v33h-7.6V301.23c0-9.15-5.09-15-13.52-15-5.61,0-10.09,2.6-13.21,7.49v38.9h-7.69Z"/><path d="M499.81,317.87c0-10.61,9.15-15.91,20.8-15.91a33.74,33.74,0,0,1,15.29,3.53v-6.86c0-8.43-4.79-12.59-13.83-12.59-5.31,0-10.4,1.56-16.33,4.58l-2.91-5.93c6.86-3.33,13.1-5.2,20-5.2,13.11,0,20.6,6.35,20.6,18.1v35.05H535.9v-5.1a25.15,25.15,0,0,1-16.85,6C507.71,333.57,499.81,327.23,499.81,317.87Zm20.59,9.67a21.26,21.26,0,0,0,15.5-6v-9.88c-4.16-2.71-8.95-4.06-15.08-4.06-8,0-13.63,3.85-13.63,10.09C507.19,323.69,512.81,327.54,520.4,327.54Z"/><path d="M560.75,287.08H549.52v-6.55h11.23V267.32l7.6-2v15.18h15.7v6.55h-15.7V319c0,5.62,2.28,7.8,8,7.8a19.35,19.35,0,0,0,7.59-1.35v6.76a30.38,30.38,0,0,1-9.16,1.35c-9.15,0-14-4.47-14-12.58Z"/><path d="M590.81,265.35a5.2,5.2,0,0,1,10.4,0,5.2,5.2,0,0,1-10.4,0Zm9.05,67.29h-7.7V280.53h7.7Z"/><path d="M637.09,279.49c14.77,0,26.52,11.86,26.52,27s-11.75,27.15-26.52,27.15-26.63-11.86-26.63-27.15S622.22,279.49,637.09,279.49Zm0,6.87c-10.61,0-19,8.84-19,20.17s8.32,20.28,19,20.28S656,317.87,656,306.53,647.7,286.36,637.09,286.36Z"/><path d="M674.22,280.53h7.69v6c4.06-4.68,9.57-7.07,16.33-7.07,12,0,20.18,8.22,20.18,20.18v33h-7.6V301.23c0-9.15-5.51-15-14.56-15a16.11,16.11,0,0,0-14.35,8v38.38h-7.69Z"/><path d="M543.31,99.4c0,11.89,7.15,17.67,20.19,17.67a52,52,0,0,0,11.89-1.68V101.61a24.8,24.8,0,0,1-7.68,1.16c-5.36,0-7.36-1.68-7.36-6.73V74.9h15.56V60.7H560.35v-18l-17,3.68V60.7H532.06V74.9h11.25Zm-52.94.32c0-3.68,3.68-5.47,9.25-5.47a43.12,43.12,0,0,1,10.1,1.26v7.15a21.5,21.5,0,0,1-10.62,2.63c-5.47,0-8.73-2.1-8.73-5.57m5.2,17.56c6,0,10.83-1.26,15.35-4.31v3.37h16.83V80.68c0-13.56-9.15-21-24.4-21-8.52,0-16.93,2-26,6.1l6.1,12.51c6.52-2.73,12-4.41,16.83-4.41,7.05,0,10.62,2.73,10.62,8.31v2.73a49.42,49.42,0,0,0-12.62-1.58c-14.3,0-22.93,6-22.93,16.72,0,9.78,7.79,17.25,20.2,17.25m-92.45-.94h18.09V87.52H451.5v28.82h18.09V42.72H451.5V71H421.21V42.72H403.12ZM334.2,88.47c0-8,6.31-14.1,14.61-14.1a17.2,17.2,0,0,1,11.78,4.32V98.14a16.34,16.34,0,0,1-11.78,4.42c-8.2,0-14.61-6.1-14.61-14.09m26.6,27.87h16.83V39l-17,3.68V63.65A28.24,28.24,0,0,0,346.39,60c-16.19,0-28.92,12.51-28.92,28.5a28.26,28.26,0,0,0,28.4,28.6,25,25,0,0,0,14.93-4.84Zm-77.19-42.7a12.3,12.3,0,0,1,11.67,8.83H272c1.68-5.57,5.89-8.83,11.57-8.83M254.9,88.57c0,16.2,13.25,28.82,30.29,28.82,9.36,0,16.19-2.53,23.24-8.42L297.18,99c-2.63,2.74-6.52,4.21-11.15,4.21a14.38,14.38,0,0,1-13.67-8.83H312V90.15c0-17.67-11.89-30.4-28.08-30.4a28.57,28.57,0,0,0-29,28.82M225.56,58.18c6,0,9.36,3.78,9.36,8.31s-3.37,8.3-9.36,8.3H207.68V58.18Zm-36,58.16h18.09V89.52h13.78l13.88,26.82h20.19L239.34,86.89a22.3,22.3,0,0,0,13.88-20.72c0-13.25-10.41-23.45-26-23.45H189.59Z"/><circle class="a" cx="78.21" cy="78.21" r="76.21" transform="matrix(0.16, -0.99, 0.99, 0.16, -11.55, 142.84)"/><path class="b" d="M114.53,108.45l-30.34-73a4.87,4.87,0,0,0-4.69-3.22,5,5,0,0,0-4.83,3.22l-33.3,80.08H52.76l13.18-33,39.33,31.78c1.59,1.28,2.73,1.86,4.21,1.86a5.44,5.44,0,0,0,5.57-5.45A7,7,0,0,0,114.53,108.45Zm-35-59.89L99.22,97.23,69.43,73.77Z"/></svg>